<?xml version="1.0" standalone="no"?>
<!DOCTYPE svg PUBLIC "-//W3C//DTD SVG 20010904//EN"
 "http://www.w3.org/TR/2001/REC-SVG-20010904/DTD/svg10.dtd">
<svg version="1.0" xmlns="http://www.w3.org/2000/svg"
 width="280.000000pt" height="280.000000pt" viewBox="0 0 280.000000 280.000000"
 preserveAspectRatio="xMidYMid meet">
<metadata>
Created by potrace 1.14, written by Peter Selinger 2001-2017
</metadata>
<g transform="translate(0.000000,280.000000) scale(0.100000,-0.100000)"
fill="#000000" stroke="none">
<path d="M1115 2096 c-86 -33 -170 -77 -249 -130 -38 -25 -69 -46 -71 -46 -1
0 -23 21 -50 46 -26 26 -77 60 -113 77 -54 25 -78 30 -151 32 -131 3 -251 -36
-251 -83 0 -10 23 -41 50 -71 141 -152 166 -374 56 -484 -32 -32 -84 -64 -118
-72 -34 -9 -34 -16 -3 -133 69 -259 174 -424 356 -563 43 -32 81 -59 84 -59 4
0 35 -13 69 -29 89 -41 193 -77 246 -86 25 -4 52 -15 60 -24 36 -42 102 -82
176 -107 68 -23 95 -27 194 -28 121 0 135 2 215 29 69 24 100 41 143 78 23 20
66 42 112 56 318 99 589 359 724 695 20 48 38 102 42 121 6 34 6 35 -27 35
-134 1 -237 208 -183 367 31 89 97 176 197 256 38 31 45 42 37 56 -17 33 -69
46 -180 46 -112 0 -173 -17 -264 -70 -49 -29 -106 -80 -106 -94 0 -21 -16 -10
-100 69 -47 44 -100 86 -118 95 -59 29 -144 37 -432 41 -278 3 -286 3 -345
-20z"/>
<path d="M758 398 c-14 -11 -49 -107 -54 -148 -1 -8 -9 -41 -19 -73 -9 -32
-15 -61 -12 -63 2 -3 15 30 29 73 23 77 24 78 68 93 43 15 110 68 110 88 0 36
-87 57 -122 30z m104 -16 c14 -14 -23 -54 -75 -78 -28 -13 -53 -22 -55 -20 -8
8 22 92 37 104 17 14 77 10 93 -6z"/>
<path d="M1096 251 c-19 -37 -37 -83 -38 -102 -3 -30 0 -33 17 -29 11 2 41 5
68 5 26 0 47 4 47 9 0 5 -29 6 -64 4 l-64 -6 14 42 c8 22 28 64 44 93 17 29
26 53 21 53 -5 0 -25 -31 -45 -69z"/>
<path d="M1321 264 c-42 -54 -15 -124 48 -126 48 -2 81 38 81 98 0 24 -4 44
-9 44 -5 0 -7 -18 -4 -39 5 -33 1 -44 -20 -65 -32 -32 -71 -34 -91 -4 -22 31
-20 52 10 87 14 17 21 31 16 31 -6 0 -20 -12 -31 -26z"/>
<path d="M1500 285 c0 -14 82 -136 88 -131 2 3 -15 34 -38 70 -40 62 -50 74
-50 61z"/>
<path d="M1631 238 c-17 -29 -28 -54 -26 -57 6 -5 3 -9 42 57 18 28 28 52 23
52 -5 0 -23 -23 -39 -52z"/>
<path d="M1735 206 c-9 -45 -19 -87 -21 -94 -3 -10 2 -11 19 -6 12 4 47 13 77
20 40 9 47 12 25 13 -17 1 -46 -3 -64 -9 -19 -5 -36 -8 -38 -6 -6 6 26 129 36
139 5 5 38 11 73 14 91 8 86 14 -9 12 l-81 -3 -17 -80z"/>
<path d="M925 210 c-4 -6 2 -9 14 -7 29 4 39 17 13 17 -11 0 -24 -5 -27 -10z"/>
<path d="M1793 213 c-18 -2 -33 -8 -33 -12 0 -4 16 -5 35 -3 19 2 35 8 35 13
0 5 -1 8 -2 7 -2 0 -18 -3 -35 -5z"/>
</g>
</svg>
