<?xml version="1.0" encoding="UTF-8"?>
<svg xmlns="http://www.w3.org/2000/svg" xmlns:xlink="http://www.w3.org/1999/xlink" viewBox="0 0 671.18 259.42">
  <defs>
    <style>
      .cls-1 {
        fill: #fff;
      }

      .cls-1, .cls-2, .cls-3 {
        stroke: #231f20;
        stroke-miterlimit: 10;
      }

      .cls-2 {
        fill: #231f20;
      }

      .cls-3 {
        fill: url(#linear-gradient);
      }
    </style>
    <linearGradient id="linear-gradient" x1="359.82" y1="224.91" x2="359.82" y2="57.84" gradientUnits="userSpaceOnUse">
      <stop offset="0" stop-color="#f37c40"/>
      <stop offset=".37" stop-color="#f07b3f"/>
      <stop offset=".54" stop-color="#e9783f"/>
      <stop offset=".66" stop-color="#dd733d"/>
      <stop offset=".76" stop-color="#cb6c3b"/>
      <stop offset=".85" stop-color="#b46339"/>
      <stop offset=".93" stop-color="#975936"/>
      <stop offset="1" stop-color="#784d33"/>
    </linearGradient>
  </defs>
  <g id="Layer_7" data-name="Layer 7">
    <path class="cls-3" d="m481.03,135.27c-3.37,12.36-11.59,35.6-32.35,56.26-4.22,4.2-12.5,12.32-25.52,19.4-39.86,21.68-85.96,12.91-111.56,8.04-.03,0-.05,0-.05,0,0,0-27.87-7.01-46.39-24.7-22.18-21.18-27.65-54.49-28.59-60.17,0,0,0-.02,0-.02,2.4-.49,11.61-2.68,17.38-11.2,4.64-6.85,4.51-14.02,4.41-16.89-.42-12.59-6.83-22.08-8.58-24.39-5.13-6.78-9.57-8.27-9.09-11.46.63-4.23,9.16-6.5,16.66-7.78h0s8.23-.13,10.27-.09c13.93.26,29.29,13.92,27.84,17.23-.28.64-1.17.86-1.2.81-.13-.2,10.94-8.47,22.31-14.42,6.99-3.66,13.17-5.96,17.58-7.39,9.75-.54,22.24-.89,36.77-.45,27.8.84,32.99,2.95,35.88,4.48,0,0,4.35,2.32,24.32,22.23.21.2-2.66-1.13-3.14-3.2-1.08-4.66,8.34-10.5,11.15-12.25,1.72-1.07,8.19-4.93,17.81-6.63,7.15-1.26,12.29-.66,14.09-.41,4.17.58,11.39,1.59,12.01,4.64.57,2.81-5.06,4.33-12.84,12.76-1.99,2.16-5.12,5.59-7.87,10.77-1.61,3.04-3.87,7.27-4.56,13.26-1.13,9.8,2.73,17.25,4.14,19.88,1.32,2.46,2.55,4.75,5.12,6.96,5.21,4.47,11.51,4.76,14.01,4.74Z"/>
  </g>
  <g id="Layer_9" data-name="Layer 9">
    <path class="cls-1" d="m318.8,219.33c-4.25-6.62-4.65-14.71-4.68-15.69-.51-13.16,7.29-22.35,8.55-23.8,11.48-13.13,29.82-12.42,40.2-12.01,9.42.37,18.99.74,27.73,7.86,1.02.83,14.17,11.89,12.8,28.18-.77,9.16-5.76,15.52-7.35,17.39-17.54,20.69-64.2,18.41-77.25-1.92Z"/>
    <ellipse class="cls-2" cx="361.28" cy="200.54" rx="14.81" ry="12.61"/>
    <path class="cls-1" d="m301.92,168.37c-4.94,7.17-9.81,5.75-14.17,12.4-7.55,11.51.4,25.89-3.09,27.35-3.12,1.3-13.23-8.62-14.47-20.92-1-9.94,4.19-17.54,8.7-24.14,6.65-9.73,19.53-22.84,24.98-19.9,4.53,2.45,4.24,16.22-1.95,25.21Z"/>
    <path class="cls-1" d="m410.1,168.37c4.94,7.17,9.81,5.75,14.17,12.4,7.55,11.51-.4,25.89,3.09,27.35,3.12,1.3,13.23-8.62,14.47-20.92,1-9.94-4.19-17.54-8.7-24.14-6.65-9.73-19.53-22.84-24.98-19.9-4.53,2.45-4.24,16.22,1.95,25.21Z"/>
  </g>
</svg>