<?xml version="1.0" encoding="UTF-8"?>
<svg xmlns="http://www.w3.org/2000/svg" xmlns:xlink="http://www.w3.org/1999/xlink" viewBox="0 0 671.18 259.42">
  <defs>
    <style>
      .cls-1 {
        fill: #fff;
      }

      .cls-1, .cls-2, .cls-3 {
        stroke: #231f20;
        stroke-miterlimit: 10;
      }

      .cls-2, .cls-4 {
        fill: #231f20;
      }

      .cls-3 {
        fill: url(#linear-gradient);
      }
    </style>
    <linearGradient id="linear-gradient" x1="359.82" y1="224.91" x2="359.82" y2="57.84" gradientUnits="userSpaceOnUse">
      <stop offset="0" stop-color="#f37c40"/>
      <stop offset=".37" stop-color="#f07b3f"/>
      <stop offset=".54" stop-color="#e9783f"/>
      <stop offset=".66" stop-color="#dd733d"/>
      <stop offset=".76" stop-color="#cb6c3b"/>
      <stop offset=".85" stop-color="#b46339"/>
      <stop offset=".93" stop-color="#975936"/>
      <stop offset="1" stop-color="#784d33"/>
    </linearGradient>
  </defs>
  <g id="Layer_7" data-name="Layer 7">
    <path class="cls-3" d="m481.03,135.27c-3.37,12.36-11.59,35.6-32.35,56.26-4.22,4.2-12.5,12.32-25.52,19.4-39.86,21.68-85.96,12.91-111.56,8.04-.03,0-.05,0-.05,0,0,0-27.87-7.01-46.39-24.7-22.18-21.18-27.65-54.49-28.59-60.17,0,0,0-.02,0-.02,2.4-.49,11.61-2.68,17.38-11.2,4.64-6.85,4.51-14.02,4.41-16.89-.42-12.59-6.83-22.08-8.58-24.39-5.13-6.78-9.57-8.27-9.09-11.46.63-4.23,9.16-6.5,16.66-7.78h0s8.23-.13,10.27-.09c13.93.26,29.29,13.92,27.84,17.23-.28.64-1.17.86-1.2.81-.13-.2,10.94-8.47,22.31-14.42,6.99-3.66,13.17-5.96,17.58-7.39,9.75-.54,22.24-.89,36.77-.45,27.8.84,32.99,2.95,35.88,4.48,0,0,4.35,2.32,24.32,22.23.21.2-2.66-1.13-3.14-3.2-1.08-4.66,8.34-10.5,11.15-12.25,1.72-1.07,8.19-4.93,17.81-6.63,7.15-1.26,12.29-.66,14.09-.41,4.17.58,11.39,1.59,12.01,4.64.57,2.81-5.06,4.33-12.84,12.76-1.99,2.16-5.12,5.59-7.87,10.77-1.61,3.04-3.87,7.27-4.56,13.26-1.13,9.8,2.73,17.25,4.14,19.88,1.32,2.46,2.55,4.75,5.12,6.96,5.21,4.47,11.51,4.76,14.01,4.74Z"/>
  </g>
  <g id="Layer_9" data-name="Layer 9">
    <path class="cls-1" d="m318.8,219.33c-4.25-6.62-4.65-14.71-4.68-15.69-.51-13.16,7.29-22.35,8.55-23.8,11.48-13.13,29.82-12.42,40.2-12.01,9.42.37,18.99.74,27.73,7.86,1.02.83,14.17,11.89,12.8,28.18-.77,9.16-5.76,15.52-7.35,17.39-17.54,20.69-64.2,18.41-77.25-1.92Z"/>
    <ellipse class="cls-2" cx="361.28" cy="200.54" rx="14.81" ry="12.61"/>
    <path class="cls-1" d="m301.92,168.37c-4.94,7.17-9.81,5.75-14.17,12.4-7.55,11.51.4,25.89-3.09,27.35-3.12,1.3-13.23-8.62-14.47-20.92-1-9.94,4.19-17.54,8.7-24.14,6.65-9.73,19.53-22.84,24.98-19.9,4.53,2.45,4.24,16.22-1.95,25.21Z"/>
    <path class="cls-1" d="m410.1,168.37c4.94,7.17,9.81,5.75,14.17,12.4,7.55,11.51-.4,25.89,3.09,27.35,3.12,1.3,13.23-8.62,14.47-20.92,1-9.94-4.19-17.54-8.7-24.14-6.65-9.73-19.53-22.84-24.98-19.9-4.53,2.45-4.24,16.22,1.95,25.21Z"/>
  </g>
  <g id="Layer_10" data-name="Layer 10">
    <path class="cls-4" d="m291.73,230.56c-2.55,9.24-5.1,18.48-7.65,27.72-.17.62.79.89.96.27,2.55-9.24,5.1-18.48,7.65-27.72.17-.62-.79-.89-.96-.27h0Z"/>
    <path class="cls-4" d="m291.7,231.46c1.85-1.26,4.03-1.95,6.27-1.97,1.08,0,2.15.13,3.19.44s2.28.79,2.47,2.03-.57,2.32-1.36,3.17c-.73.79-1.55,1.49-2.43,2.11-1.8,1.27-3.8,2.2-5.87,2.94-2.33.83-4.74,1.42-7.15,1.98-.63.15-.36,1.11.27.96,4.84-1.13,9.88-2.41,13.89-5.49,1.76-1.35,4.01-3.35,3.65-5.81s-3.41-3.09-5.46-3.28c-2.79-.26-5.65.48-7.96,2.06-.53.36-.03,1.23.5.86h0Z"/>
    <path class="cls-4" d="m309.32,249.08c1.62-.24,3.27-.31,4.91-.23.64.03.64-.97,0-1-1.73-.08-3.46.01-5.17.27-.27.04-.41.38-.35.62.08.29.35.39.62.35h0Z"/>
    <path class="cls-4" d="m331.24,236.93c-2.75,4.26-5.13,8.75-7.11,13.42-.49,1.16-1,2.33-1.38,3.53-.3.96-.68,2.33-.31,3.32.42,1.13,1.52.52,2.31.22,1.11-.41,2.27-.71,3.44-.88,2.73-.4,5.53-.11,8.13.81.61.21.87-.75.27-.96-4.1-1.45-8.68-1.35-12.7.31-.09.04-.26.15-.36.15-.2,0-.11.07-.19-.19-.07-.23-.01-.55,0-.78.05-.63.21-1.24.4-1.84.37-1.15.86-2.28,1.33-3.39.9-2.12,1.89-4.2,2.96-6.24,1.25-2.38,2.6-4.7,4.06-6.96.35-.54-.52-1.04-.86-.5h0Z"/>
    <path class="cls-4" d="m353.08,239.92c-2.49,1.23-4.6,3.35-5.44,6.04s-.34,5.77,1.63,7.81,4.8,2.66,7.34,1.58,4.27-3.23,5.16-5.69c.98-2.69.82-5.81-.78-8.24-.35-.53-1.22-.03-.86.5,2.53,3.82,1.03,9.34-2.68,11.84-2.1,1.42-4.68,1.5-6.74-.05s-2.82-4.25-2.31-6.72c.58-2.81,2.67-4.98,5.18-6.22.58-.29.07-1.15-.5-.86h0Z"/>
    <path class="cls-4" d="m366.98,240.58c2.63,4.76,5.49,9.38,8.57,13.86.36.53,1.23.03.86-.5-3.08-4.48-5.94-9.1-8.57-13.86-.31-.56-1.18-.06-.86.5h0Z"/>
    <path class="cls-4" d="m384.15,240.1c-2.78,3.41-5.06,7.18-6.78,11.23-.25.59.61,1.1.86.5,1.68-3.97,3.9-7.69,6.62-11.03.4-.5-.3-1.21-.71-.71h0Z"/>
    <path class="cls-4" d="m392.85,239.96c-1.47,5.52-2.7,11.11-3.67,16.74-.11.63.85.9.96.27.97-5.63,2.2-11.22,3.67-16.74.17-.62-.8-.89-.96-.27h0Z"/>
    <path class="cls-4" d="m393.06,242.83c4.97-1.24,10.07-1.77,15.18-1.6.64.02.64-.98,0-1-5.2-.18-10.4.37-15.45,1.63-.62.16-.36,1.12.27.96h0Z"/>
    <path class="cls-4" d="m393.01,249.95l7.57-1.12c.27-.04.41-.38.35-.62-.08-.29-.35-.39-.62-.35l-7.57,1.12c-.27.04-.41.38-.35.62.08.29.35.39.62.35h0Z"/>
    <path class="cls-4" d="m389.17,258.67v.23c0,.07.01.13.04.19.02.06.05.12.1.16.05.05.1.08.16.1.06.03.12.05.19.04l.13-.02c.08-.02.16-.07.22-.13l.08-.1c.05-.08.07-.16.07-.25v-.23c0-.07-.01-.13-.04-.19-.02-.06-.05-.12-.1-.16-.05-.05-.1-.08-.16-.1-.06-.03-.12-.05-.19-.04l-.13.02c-.08.02-.16.07-.22.13l-.08.1c-.05.08-.07.16-.07.25h0Z"/>
    <path class="cls-4" d="m388.47,259.38c4.71-1.76,9.45-2.94,14.5-3.09.64-.02.64-1.02,0-1-2.52.07-5.03.36-7.49.89s-4.89,1.34-7.27,2.23c-.6.22-.34,1.19.27.96h0Z"/>
    <path class="cls-4" d="m79.66,6.71c.64,0,.64-1,0-1s-.64,1,0,1h0Z"/>
  </g>
</svg>